<svg width="758" height="144" viewBox="0 0 758 144" fill="none" xmlns="http://www.w3.org/2000/svg">
<g id="Frame 1">
<g id="The under water world">
<path d="M247.413 71.9863H240.558V91H237.76V71.9863H230.919V69.6719H247.413V71.9863ZM252.862 77.0693C254.063 75.5947 255.626 74.8574 257.55 74.8574C260.899 74.8574 262.589 76.7471 262.618 80.5264V91H259.908V80.5117C259.898 79.3691 259.635 78.5244 259.117 77.9775C258.609 77.4307 257.813 77.1572 256.729 77.1572C255.851 77.1572 255.079 77.3916 254.415 77.8604C253.751 78.3291 253.233 78.9443 252.862 79.7061V91H250.152V68.5H252.862V77.0693ZM273.253 91.293C271.104 91.293 269.356 90.5898 268.009 89.1836C266.661 87.7676 265.987 85.8779 265.987 83.5146V83.0166C265.987 81.4443 266.285 80.043 266.881 78.8125C267.486 77.5723 268.326 76.6055 269.4 75.9121C270.484 75.209 271.656 74.8574 272.916 74.8574C274.977 74.8574 276.578 75.5361 277.721 76.8936C278.863 78.251 279.435 80.1943 279.435 82.7236V83.8516H268.697C268.736 85.4141 269.19 86.6787 270.06 87.6455C270.938 88.6025 272.052 89.0811 273.399 89.0811C274.356 89.0811 275.167 88.8857 275.831 88.4951C276.495 88.1045 277.076 87.5869 277.574 86.9424L279.229 88.2314C277.901 90.2725 275.909 91.293 273.253 91.293ZM272.916 77.084C271.822 77.084 270.904 77.4844 270.162 78.2852C269.42 79.0762 268.961 80.1895 268.785 81.625H276.725V81.4199C276.646 80.043 276.275 78.9785 275.611 78.2266C274.947 77.4648 274.049 77.084 272.916 77.084ZM299.811 89.4326C298.756 90.6729 297.208 91.293 295.167 91.293C293.478 91.293 292.188 90.8047 291.3 89.8281C290.421 88.8418 289.977 87.3867 289.967 85.4629V75.1504H292.677V85.3896C292.677 87.792 293.653 88.9932 295.606 88.9932C297.677 88.9932 299.054 88.2217 299.737 86.6787V75.1504H302.447V91H299.869L299.811 89.4326ZM309.142 75.1504L309.229 77.1426C310.44 75.6191 312.022 74.8574 313.976 74.8574C317.325 74.8574 319.015 76.7471 319.044 80.5264V91H316.334V80.5117C316.324 79.3691 316.061 78.5244 315.543 77.9775C315.035 77.4307 314.239 77.1572 313.155 77.1572C312.276 77.1572 311.505 77.3916 310.841 77.8604C310.177 78.3291 309.659 78.9443 309.288 79.7061V91H306.578V75.1504H309.142ZM322.472 82.9434C322.472 80.5117 323.048 78.5586 324.2 77.084C325.353 75.5996 326.861 74.8574 328.727 74.8574C330.582 74.8574 332.052 75.4922 333.136 76.7617V68.5H335.846V91H333.355L333.224 89.3008C332.14 90.6289 330.631 91.293 328.697 91.293C326.861 91.293 325.362 90.541 324.2 89.0371C323.048 87.5332 322.472 85.5703 322.472 83.1484V82.9434ZM325.182 83.251C325.182 85.0479 325.553 86.4541 326.295 87.4697C327.037 88.4854 328.062 88.9932 329.371 88.9932C331.09 88.9932 332.345 88.2217 333.136 86.6787V79.3984C332.325 77.9043 331.08 77.1572 329.4 77.1572C328.072 77.1572 327.037 77.6699 326.295 78.6953C325.553 79.7207 325.182 81.2393 325.182 83.251ZM346.642 91.293C344.493 91.293 342.745 90.5898 341.397 89.1836C340.05 87.7676 339.376 85.8779 339.376 83.5146V83.0166C339.376 81.4443 339.674 80.043 340.27 78.8125C340.875 77.5723 341.715 76.6055 342.789 75.9121C343.873 75.209 345.045 74.8574 346.305 74.8574C348.365 74.8574 349.967 75.5361 351.109 76.8936C352.252 78.251 352.823 80.1943 352.823 82.7236V83.8516H342.086C342.125 85.4141 342.579 86.6787 343.448 87.6455C344.327 88.6025 345.44 89.0811 346.788 89.0811C347.745 89.0811 348.556 88.8857 349.22 88.4951C349.884 88.1045 350.465 87.5869 350.963 86.9424L352.618 88.2314C351.29 90.2725 349.298 91.293 346.642 91.293ZM346.305 77.084C345.211 77.084 344.293 77.4844 343.551 78.2852C342.809 79.0762 342.35 80.1895 342.174 81.625H350.113V81.4199C350.035 80.043 349.664 78.9785 349 78.2266C348.336 77.4648 347.438 77.084 346.305 77.084ZM363.634 77.582C363.224 77.5137 362.779 77.4795 362.301 77.4795C360.523 77.4795 359.317 78.2363 358.683 79.75V91H355.973V75.1504H358.609L358.653 76.9814C359.542 75.5654 360.802 74.8574 362.433 74.8574C362.96 74.8574 363.36 74.9258 363.634 75.0625V77.582ZM387.613 87.2646L390.66 75.1504H393.37L388.756 91H386.559L382.706 78.9883L378.956 91H376.759L372.159 75.1504H374.854L377.975 87.0156L381.666 75.1504H383.849L387.613 87.2646ZM405.924 91C405.768 90.6875 405.641 90.1309 405.543 89.3301C404.283 90.6387 402.779 91.293 401.031 91.293C399.469 91.293 398.185 90.8535 397.179 89.9746C396.183 89.0859 395.685 87.9629 395.685 86.6055C395.685 84.9551 396.31 83.6758 397.56 82.7676C398.819 81.8496 400.587 81.3906 402.862 81.3906H405.499V80.1455C405.499 79.1982 405.216 78.4463 404.649 77.8896C404.083 77.3232 403.248 77.04 402.145 77.04C401.178 77.04 400.367 77.2842 399.713 77.7725C399.059 78.2607 398.731 78.8516 398.731 79.5449H396.007C396.007 78.7539 396.285 77.9922 396.842 77.2598C397.408 76.5176 398.17 75.9316 399.127 75.502C400.094 75.0723 401.153 74.8574 402.306 74.8574C404.132 74.8574 405.562 75.3164 406.598 76.2344C407.633 77.1426 408.17 78.3975 408.209 79.999V87.2939C408.209 88.749 408.395 89.9062 408.766 90.7656V91H405.924ZM401.427 88.9346C402.276 88.9346 403.082 88.7148 403.844 88.2754C404.605 87.8359 405.157 87.2646 405.499 86.5615V83.3096H403.375C400.055 83.3096 398.395 84.2812 398.395 86.2246C398.395 87.0742 398.678 87.7383 399.244 88.2168C399.811 88.6953 400.538 88.9346 401.427 88.9346ZM416.134 71.3125V75.1504H419.093V77.2451H416.134V87.0742C416.134 87.709 416.266 88.1875 416.529 88.5098C416.793 88.8223 417.242 88.9785 417.877 88.9785C418.189 88.9785 418.619 88.9199 419.166 88.8027V91C418.453 91.1953 417.76 91.293 417.086 91.293C415.875 91.293 414.962 90.9268 414.347 90.1943C413.731 89.4619 413.424 88.4219 413.424 87.0742V77.2451H410.538V75.1504H413.424V71.3125H416.134ZM428.849 91.293C426.7 91.293 424.952 90.5898 423.604 89.1836C422.257 87.7676 421.583 85.8779 421.583 83.5146V83.0166C421.583 81.4443 421.881 80.043 422.477 78.8125C423.082 77.5723 423.922 76.6055 424.996 75.9121C426.08 75.209 427.252 74.8574 428.512 74.8574C430.572 74.8574 432.174 75.5361 433.316 76.8936C434.459 78.251 435.03 80.1943 435.03 82.7236V83.8516H424.293C424.332 85.4141 424.786 86.6787 425.655 87.6455C426.534 88.6025 427.647 89.0811 428.995 89.0811C429.952 89.0811 430.763 88.8857 431.427 88.4951C432.091 88.1045 432.672 87.5869 433.17 86.9424L434.825 88.2314C433.497 90.2725 431.505 91.293 428.849 91.293ZM428.512 77.084C427.418 77.084 426.5 77.4844 425.758 78.2852C425.016 79.0762 424.557 80.1895 424.381 81.625H432.32V81.4199C432.242 80.043 431.871 78.9785 431.207 78.2266C430.543 77.4648 429.645 77.084 428.512 77.084ZM445.841 77.582C445.431 77.5137 444.986 77.4795 444.508 77.4795C442.73 77.4795 441.524 78.2363 440.89 79.75V91H438.18V75.1504H440.816L440.86 76.9814C441.749 75.5654 443.009 74.8574 444.64 74.8574C445.167 74.8574 445.567 74.9258 445.841 75.0625V77.582ZM469.82 87.2646L472.867 75.1504H475.577L470.963 91H468.766L464.913 78.9883L461.163 91H458.966L454.366 75.1504H457.062L460.182 87.0156L463.873 75.1504H466.056L469.82 87.2646ZM477.628 82.9287C477.628 81.376 477.931 79.9795 478.536 78.7393C479.151 77.499 480.001 76.542 481.085 75.8682C482.179 75.1943 483.424 74.8574 484.82 74.8574C486.979 74.8574 488.722 75.6045 490.05 77.0986C491.388 78.5928 492.057 80.5801 492.057 83.0605V83.251C492.057 84.7939 491.759 86.1807 491.163 87.4111C490.577 88.6318 489.732 89.584 488.629 90.2676C487.535 90.9512 486.275 91.293 484.85 91.293C482.701 91.293 480.958 90.5459 479.62 89.0518C478.292 87.5576 477.628 85.5801 477.628 83.1191V82.9287ZM480.353 83.251C480.353 85.0088 480.758 86.4199 481.568 87.4844C482.389 88.5488 483.482 89.0811 484.85 89.0811C486.227 89.0811 487.32 88.5439 488.131 87.4697C488.941 86.3857 489.347 84.8721 489.347 82.9287C489.347 81.1904 488.932 79.7842 488.102 78.71C487.281 77.626 486.188 77.084 484.82 77.084C483.482 77.084 482.403 77.6162 481.583 78.6807C480.763 79.7451 480.353 81.2686 480.353 83.251ZM503.116 77.582C502.706 77.5137 502.262 77.4795 501.783 77.4795C500.006 77.4795 498.8 78.2363 498.165 79.75V91H495.455V75.1504H498.092L498.136 76.9814C499.024 75.5654 500.284 74.8574 501.915 74.8574C502.442 74.8574 502.843 74.9258 503.116 75.0625V77.582ZM508.565 91H505.855V68.5H508.565V91ZM512.257 82.9434C512.257 80.5117 512.833 78.5586 513.985 77.084C515.138 75.5996 516.646 74.8574 518.512 74.8574C520.367 74.8574 521.837 75.4922 522.921 76.7617V68.5H525.631V91H523.141L523.009 89.3008C521.925 90.6289 520.416 91.293 518.482 91.293C516.646 91.293 515.147 90.541 513.985 89.0371C512.833 87.5332 512.257 85.5703 512.257 83.1484V82.9434ZM514.967 83.251C514.967 85.0479 515.338 86.4541 516.08 87.4697C516.822 88.4854 517.848 88.9932 519.156 88.9932C520.875 88.9932 522.13 88.2217 522.921 86.6787V79.3984C522.11 77.9043 520.865 77.1572 519.186 77.1572C517.857 77.1572 516.822 77.6699 516.08 78.6953C515.338 79.7207 514.967 81.2393 514.967 83.251Z" fill="white" />
<path d="M247.413 71.9863V72.9863H248.413V71.9863H247.413ZM240.558 71.9863V70.9863H239.558V71.9863H240.558ZM240.558 91V92H241.558V91H240.558ZM237.76 91H236.76V92H237.76V91ZM237.76 71.9863H238.76V70.9863H237.76V71.9863ZM230.919 71.9863H229.919V72.9863H230.919V71.9863ZM230.919 69.6719V68.6719H229.919V69.6719H230.919ZM247.413 69.6719H248.413V68.6719H247.413V69.6719ZM247.413 70.9863H240.558V72.9863H247.413V70.9863ZM239.558 71.9863V91H241.558V71.9863H239.558ZM240.558 90H237.76V92H240.558V90ZM238.76 91V71.9863H236.76V91H238.76ZM237.76 70.9863H230.919V72.9863H237.76V70.9863ZM231.919 71.9863V69.6719H229.919V71.9863H231.919ZM230.919 70.6719H247.413V68.6719H230.919V70.6719ZM246.413 69.6719V71.9863H248.413V69.6719H246.413ZM252.862 77.0693H251.862V79.8804L253.638 77.7009L252.862 77.0693ZM262.618 80.5264L263.618 80.5264L263.618 80.5186L262.618 80.5264ZM262.618 91V92H263.618V91H262.618ZM259.908 91H258.908V92H259.908V91ZM259.908 80.5117L260.908 80.5117L260.908 80.5032L259.908 80.5117ZM259.117 77.9775L258.384 78.658L258.391 78.6649L259.117 77.9775ZM252.862 79.7061L251.963 79.2681L251.862 79.4754V79.7061H252.862ZM252.862 91V92H253.862V91H252.862ZM250.152 91H249.152V92H250.152V91ZM250.152 68.5V67.5H249.152V68.5H250.152ZM252.862 68.5H253.862V67.5H252.862V68.5ZM253.638 77.7009C254.646 76.4625 255.923 75.8574 257.55 75.8574V73.8574C255.329 73.8574 253.481 74.7269 252.087 76.4378L253.638 77.7009ZM257.55 75.8574C259.037 75.8574 259.985 76.2712 260.584 76.9412C261.203 77.6336 261.605 78.7716 261.618 80.5341L263.618 80.5186C263.603 78.5019 263.145 76.8054 262.075 75.6081C260.984 74.3885 259.413 73.8574 257.55 73.8574V75.8574ZM261.618 80.5264V91H263.618V80.5264H261.618ZM262.618 90H259.908V92H262.618V90ZM260.908 91V80.5117H258.908V91H260.908ZM260.908 80.5032C260.897 79.2351 260.606 78.0958 259.843 77.2902L258.391 78.6649C258.664 78.953 258.9 79.5031 258.908 80.5203L260.908 80.5032ZM259.85 77.2971C259.081 76.4688 257.964 76.1572 256.729 76.1572V78.1572C257.663 78.1572 258.138 78.3925 258.384 78.658L259.85 77.2971ZM256.729 76.1572C255.662 76.1572 254.685 76.4457 253.838 77.0434L254.992 78.6773C255.473 78.3375 256.039 78.1572 256.729 78.1572V76.1572ZM253.838 77.0434C253.031 77.6135 252.405 78.3616 251.963 79.2681L253.761 80.144C254.062 79.5271 254.471 79.0447 254.992 78.6773L253.838 77.0434ZM251.862 79.7061V91H253.862V79.7061H251.862ZM252.862 90H250.152V92H252.862V90ZM251.152 91V68.5H249.152V91H251.152ZM250.152 69.5H252.862V67.5H250.152V69.5ZM251.862 68.5V77.0693H253.862V68.5H251.862ZM268.009 89.1836L267.284 89.873L267.287 89.8755L268.009 89.1836ZM266.881 78.8125L265.982 78.3738L265.981 78.3768L266.881 78.8125ZM269.4 75.9121L269.943 76.7523L269.945 76.7511L269.4 75.9121ZM277.721 76.8936L276.956 77.5375L277.721 76.8936ZM279.435 83.8516V84.8516H280.435V83.8516H279.435ZM268.697 83.8516V82.8516H267.672L267.698 83.8766L268.697 83.8516ZM270.06 87.6455L269.316 88.3141L269.323 88.3219L270.06 87.6455ZM277.574 86.9424L278.189 86.1534L277.397 85.5367L276.783 86.3309L277.574 86.9424ZM279.229 88.2314L280.068 88.7769L280.569 88.0069L279.844 87.4425L279.229 88.2314ZM270.162 78.2852L270.891 78.9694L270.896 78.9649L270.162 78.2852ZM268.785 81.625L267.793 81.5035L267.655 82.625H268.785V81.625ZM276.725 81.625V82.625H277.725V81.625H276.725ZM276.725 81.4199H277.725V81.3916L277.723 81.3633L276.725 81.4199ZM275.611 78.2266L274.858 78.8837L274.862 78.8885L275.611 78.2266ZM273.253 90.293C271.346 90.293 269.869 89.6798 268.731 88.4917L267.287 89.8755C268.844 91.4999 270.863 92.293 273.253 92.293V90.293ZM268.733 88.4942C267.598 87.3015 266.987 85.6781 266.987 83.5146H264.987C264.987 86.0778 265.724 88.2336 267.284 89.873L268.733 88.4942ZM266.987 83.5146V83.0166H264.987V83.5146H266.987ZM266.987 83.0166C266.987 81.5726 267.26 80.3238 267.781 79.2482L265.981 78.3768C265.31 79.7621 264.987 81.3161 264.987 83.0166H266.987ZM267.779 79.2512C268.312 78.1613 269.034 77.339 269.943 76.7523L268.858 75.0719C267.619 75.872 266.661 76.9833 265.982 78.3738L267.779 79.2512ZM269.945 76.7511C270.871 76.1502 271.855 75.8574 272.916 75.8574V73.8574C271.458 73.8574 270.098 74.2678 268.856 75.0731L269.945 76.7511ZM272.916 75.8574C274.734 75.8574 276.035 76.4434 276.956 77.5375L278.486 76.2496C277.122 74.6288 275.219 73.8574 272.916 73.8574V75.8574ZM276.956 77.5375C277.893 78.6514 278.435 80.3314 278.435 82.7236H280.435C280.435 80.0573 279.833 77.8506 278.486 76.2496L276.956 77.5375ZM278.435 82.7236V83.8516H280.435V82.7236H278.435ZM279.435 82.8516H268.697V84.8516H279.435V82.8516ZM267.698 83.8766C267.741 85.6269 268.257 87.1359 269.316 88.3141L270.803 86.977C270.124 86.2215 269.731 85.2013 269.697 83.8266L267.698 83.8766ZM269.323 88.3219C270.399 89.4937 271.784 90.0811 273.399 90.0811V88.0811C272.32 88.0811 271.478 87.7114 270.796 86.9691L269.323 88.3219ZM273.399 90.0811C274.492 90.0811 275.487 89.8576 276.338 89.3571L275.324 87.6332C274.847 87.9139 274.221 88.0811 273.399 88.0811V90.0811ZM276.338 89.3571C277.118 88.8982 277.794 88.2934 278.366 87.5538L276.783 86.3309C276.358 86.8805 275.872 87.3108 275.324 87.6332L276.338 89.3571ZM276.96 87.7314L278.615 89.0204L279.844 87.4425L278.189 86.1534L276.96 87.7314ZM278.391 87.686C277.267 89.4142 275.607 90.293 273.253 90.293V92.293C276.211 92.293 278.536 91.1307 280.068 88.7769L278.391 87.686ZM272.916 76.084C271.544 76.084 270.36 76.6 269.429 77.6054L270.896 78.9649C271.448 78.3687 272.1 78.084 272.916 78.084V76.084ZM269.433 77.6009C268.504 78.5911 267.986 79.9267 267.793 81.5035L269.778 81.7465C269.936 80.4522 270.336 79.5613 270.891 78.9694L269.433 77.6009ZM268.785 82.625H276.725V80.625H268.785V82.625ZM277.725 81.625V81.4199H275.725V81.625H277.725ZM277.723 81.3633C277.637 79.8453 277.22 78.5379 276.361 77.5646L274.862 78.8885C275.33 79.4192 275.656 80.2406 275.726 81.4766L277.723 81.3633ZM276.365 77.5694C275.487 76.562 274.299 76.084 272.916 76.084V78.084C273.799 78.084 274.408 78.3676 274.858 78.8837L276.365 77.5694ZM299.811 89.4326L300.81 89.3953L300.714 86.8268L299.049 88.7848L299.811 89.4326ZM291.3 89.8281L290.553 90.4934L290.56 90.5012L291.3 89.8281ZM289.967 85.4629L288.967 85.4629L288.967 85.468L289.967 85.4629ZM289.967 75.1504V74.1504H288.967V75.1504H289.967ZM292.677 75.1504H293.677V74.1504H292.677V75.1504ZM299.737 86.6787L300.652 87.0838L300.737 86.8903V86.6787H299.737ZM299.737 75.1504V74.1504H298.737V75.1504H299.737ZM302.447 75.1504H303.447V74.1504H302.447V75.1504ZM302.447 91V92H303.447V91H302.447ZM299.869 91L298.87 91.0374L298.906 92H299.869V91ZM299.049 88.7848C298.231 89.7467 296.995 90.293 295.167 90.293V92.293C297.421 92.293 299.281 91.599 300.572 90.0804L299.049 88.7848ZM295.167 90.293C293.675 90.293 292.689 89.8686 292.039 89.1551L290.56 90.5012C291.688 91.7408 293.28 92.293 295.167 92.293V90.293ZM292.046 89.1628C291.39 88.426 290.976 87.2472 290.967 85.4578L288.967 85.468C288.977 87.5263 289.452 89.2576 290.553 90.4934L292.046 89.1628ZM290.967 85.4629V75.1504H288.967V85.4629H290.967ZM289.967 76.1504H292.677V74.1504H289.967V76.1504ZM291.677 75.1504V85.3896H293.677V75.1504H291.677ZM291.677 85.3896C291.677 86.7005 291.939 87.8692 292.633 88.7231C293.36 89.6166 294.415 89.9932 295.606 89.9932V87.9932C294.845 87.9932 294.435 87.7691 294.185 87.4615C293.903 87.1142 293.677 86.4811 293.677 85.3896H291.677ZM295.606 89.9932C296.761 89.9932 297.803 89.7785 298.681 89.287C299.571 88.788 300.229 88.0384 300.652 87.0838L298.823 86.2736C298.562 86.862 298.19 87.2696 297.703 87.5422C297.203 87.8221 296.522 87.9932 295.606 87.9932V89.9932ZM300.737 86.6787V75.1504H298.737V86.6787H300.737ZM299.737 76.1504H302.447V74.1504H299.737V76.1504ZM301.447 75.1504V91H303.447V75.1504H301.447ZM302.447 90H299.869V92H302.447V90ZM300.868 90.9626L300.81 89.3953L298.811 89.47L298.87 91.0374L300.868 90.9626ZM309.142 75.1504L310.141 75.1063L310.098 74.1504H309.142V75.1504ZM309.229 77.1426L308.23 77.1867L308.348 79.8582L310.012 77.7648L309.229 77.1426ZM319.044 80.5264L320.044 80.5264L320.044 80.5186L319.044 80.5264ZM319.044 91V92H320.044V91H319.044ZM316.334 91H315.334V92H316.334V91ZM316.334 80.5117L317.334 80.5117L317.334 80.5032L316.334 80.5117ZM315.543 77.9775L314.81 78.658L314.817 78.6649L315.543 77.9775ZM309.288 79.7061L308.389 79.2681L308.288 79.4754V79.7061H309.288ZM309.288 91V92H310.288V91H309.288ZM306.578 91H305.578V92H306.578V91ZM306.578 75.1504V74.1504H305.578V75.1504H306.578ZM308.143 75.1945L308.23 77.1867L310.229 77.0985L310.141 75.1063L308.143 75.1945ZM310.012 77.7648C311.033 76.4811 312.326 75.8574 313.976 75.8574V73.8574C311.719 73.8574 309.848 74.7572 308.447 76.5203L310.012 77.7648ZM313.976 75.8574C315.462 75.8574 316.41 76.2712 317.009 76.9412C317.628 77.6336 318.03 78.7716 318.044 80.5341L320.044 80.5186C320.028 78.5019 319.571 76.8054 318.5 75.6081C317.41 74.3885 315.838 73.8574 313.976 73.8574V75.8574ZM318.044 80.5264V91H320.044V80.5264H318.044ZM319.044 90H316.334V92H319.044V90ZM317.334 91V80.5117H315.334V91H317.334ZM317.334 80.5032C317.323 79.2351 317.032 78.0958 316.269 77.2902L314.817 78.6649C315.089 78.953 315.325 79.5031 315.334 80.5203L317.334 80.5032ZM316.276 77.2971C315.507 76.4688 314.39 76.1572 313.155 76.1572V78.1572C314.089 78.1572 314.564 78.3925 314.81 78.658L316.276 77.2971ZM313.155 76.1572C312.088 76.1572 311.111 76.4457 310.264 77.0434L311.418 78.6773C311.899 78.3375 312.465 78.1572 313.155 78.1572V76.1572ZM310.264 77.0434C309.456 77.6135 308.831 78.3616 308.389 79.2681L310.187 80.144C310.488 79.5271 310.897 79.0447 311.418 78.6773L310.264 77.0434ZM308.288 79.7061V91H310.288V79.7061H308.288ZM309.288 90H306.578V92H309.288V90ZM307.578 91V75.1504H305.578V91H307.578ZM306.578 76.1504H309.142V74.1504H306.578V76.1504ZM324.2 77.084L324.988 77.6997L324.99 77.6972L324.2 77.084ZM333.136 76.7617L332.375 77.4111L334.136 79.4729V76.7617H333.136ZM333.136 68.5V67.5H332.136V68.5H333.136ZM335.846 68.5H336.846V67.5H335.846V68.5ZM335.846 91V92H336.846V91H335.846ZM333.355 91L332.358 91.0774L332.43 92H333.355V91ZM333.224 89.3008L334.221 89.2234L334.028 86.7343L332.449 88.6685L333.224 89.3008ZM324.2 89.0371L323.406 89.6453L323.409 89.6486L324.2 89.0371ZM333.136 86.6787L334.026 87.1349L334.136 86.9201V86.6787H333.136ZM333.136 79.3984H334.136V79.1447L334.015 78.9216L333.136 79.3984ZM323.472 82.9434C323.472 80.6676 324.01 78.952 324.988 77.6997L323.412 76.4682C322.086 78.1652 321.472 80.3558 321.472 82.9434H323.472ZM324.99 77.6972C325.955 76.4547 327.173 75.8574 328.727 75.8574V73.8574C326.55 73.8574 324.75 74.7445 323.41 76.4708L324.99 77.6972ZM328.727 75.8574C330.326 75.8574 331.504 76.3905 332.375 77.4111L333.896 76.1124C332.6 74.5939 330.838 73.8574 328.727 73.8574V75.8574ZM334.136 76.7617V68.5H332.136V76.7617H334.136ZM333.136 69.5H335.846V67.5H333.136V69.5ZM334.846 68.5V91H336.846V68.5H334.846ZM335.846 90H333.355V92H335.846V90ZM334.352 90.9226L334.221 89.2234L332.227 89.3781L332.358 91.0774L334.352 90.9226ZM332.449 88.6685C331.581 89.7323 330.374 90.293 328.697 90.293V92.293C330.888 92.293 332.699 91.5255 333.998 89.9331L332.449 88.6685ZM328.697 90.293C327.184 90.293 325.972 89.6946 324.991 88.4257L323.409 89.6486C324.753 91.3875 326.539 92.293 328.697 92.293V90.293ZM324.994 88.4289C324.009 87.143 323.472 85.4122 323.472 83.1484H321.472C321.472 85.7284 322.087 87.9234 323.406 89.6453L324.994 88.4289ZM323.472 83.1484V82.9434H321.472V83.1484H323.472ZM324.182 83.251C324.182 85.1722 324.577 86.8135 325.488 88.0597L327.102 86.8797C326.529 86.0947 326.182 84.9235 326.182 83.251H324.182ZM325.488 88.0597C326.427 89.345 327.759 89.9932 329.371 89.9932V87.9932C328.366 87.9932 327.647 87.6257 327.102 86.8797L325.488 88.0597ZM329.371 89.9932C330.384 89.9932 331.315 89.7642 332.125 89.2664C332.934 88.769 333.562 88.0401 334.026 87.1349L332.246 86.2225C331.919 86.8603 331.523 87.2886 331.078 87.5627C330.632 87.8364 330.077 87.9932 329.371 87.9932V89.9932ZM334.136 86.6787V79.3984H332.136V86.6787H334.136ZM334.015 78.9216C333.539 78.0444 332.909 77.3402 332.108 76.86C331.308 76.3794 330.393 76.1572 329.4 76.1572V78.1572C330.088 78.1572 330.635 78.3085 331.079 78.575C331.524 78.8419 331.922 79.2583 332.257 79.8753L334.015 78.9216ZM329.4 76.1572C327.77 76.1572 326.426 76.8091 325.485 78.109L327.105 79.2816C327.648 78.5308 328.374 78.1572 329.4 78.1572V76.1572ZM325.485 78.109C324.566 79.3789 324.182 81.1434 324.182 83.251H326.182C326.182 81.3351 326.54 80.0625 327.105 79.2816L325.485 78.109ZM341.397 89.1836L340.673 89.873L340.675 89.8755L341.397 89.1836ZM340.27 78.8125L339.371 78.3738L339.369 78.3768L340.27 78.8125ZM342.789 75.9121L343.331 76.7523L343.333 76.7511L342.789 75.9121ZM351.109 76.8936L350.344 77.5375L351.109 76.8936ZM352.823 83.8516V84.8516H353.823V83.8516H352.823ZM342.086 83.8516V82.8516H341.061L341.086 83.8766L342.086 83.8516ZM343.448 87.6455L342.705 88.3141L342.712 88.3219L343.448 87.6455ZM350.963 86.9424L351.577 86.1534L350.785 85.5367L350.172 86.3309L350.963 86.9424ZM352.618 88.2314L353.456 88.7769L353.957 88.0069L353.233 87.4425L352.618 88.2314ZM343.551 78.2852L344.28 78.9694L344.284 78.9649L343.551 78.2852ZM342.174 81.625L341.181 81.5035L341.044 82.625H342.174V81.625ZM350.113 81.625V82.625H351.113V81.625H350.113ZM350.113 81.4199H351.113V81.3916L351.112 81.3633L350.113 81.4199ZM349 78.2266L348.246 78.8837L348.25 78.8885L349 78.2266ZM346.642 90.293C344.735 90.293 343.258 89.6798 342.119 88.4917L340.675 89.8755C342.232 91.4999 344.252 92.293 346.642 92.293V90.293ZM342.122 88.4942C340.987 87.3015 340.376 85.6781 340.376 83.5146H338.376C338.376 86.0778 339.113 88.2336 340.673 89.873L342.122 88.4942ZM340.376 83.5146V83.0166H338.376V83.5146H340.376ZM340.376 83.0166C340.376 81.5726 340.649 80.3238 341.17 79.2482L339.369 78.3768C338.699 79.7621 338.376 81.3161 338.376 83.0166H340.376ZM341.168 79.2512C341.7 78.1613 342.422 77.339 343.331 76.7523L342.247 75.0719C341.007 75.872 340.05 76.9833 339.371 78.3738L341.168 79.2512ZM343.333 76.7511C344.26 76.1502 345.243 75.8574 346.305 75.8574V73.8574C344.847 73.8574 343.486 74.2678 342.245 75.0731L343.333 76.7511ZM346.305 75.8574C348.123 75.8574 349.423 76.4434 350.344 77.5375L351.874 76.2496C350.51 74.6288 348.607 73.8574 346.305 73.8574V75.8574ZM350.344 77.5375C351.282 78.6514 351.823 80.3314 351.823 82.7236H353.823C353.823 80.0573 353.222 77.8506 351.874 76.2496L350.344 77.5375ZM351.823 82.7236V83.8516H353.823V82.7236H351.823ZM352.823 82.8516H342.086V84.8516H352.823V82.8516ZM341.086 83.8766C341.13 85.6269 341.645 87.1359 342.705 88.3141L344.192 86.977C343.513 86.2215 343.12 85.2013 343.086 83.8266L341.086 83.8766ZM342.712 88.3219C343.788 89.4937 345.172 90.0811 346.788 90.0811V88.0811C345.709 88.0811 344.866 87.7114 344.185 86.9691L342.712 88.3219ZM346.788 90.0811C347.881 90.0811 348.876 89.8576 349.727 89.3571L348.713 87.6332C348.235 87.9139 347.61 88.0811 346.788 88.0811V90.0811ZM349.727 89.3571C350.507 88.8982 351.183 88.2934 351.754 87.5538L350.172 86.3309C349.747 86.8805 349.261 87.3108 348.713 87.6332L349.727 89.3571ZM350.348 87.7314L352.004 89.0204L353.233 87.4425L351.577 86.1534L350.348 87.7314ZM351.78 87.686C350.655 89.4142 348.996 90.293 346.642 90.293V92.293C349.6 92.293 351.925 91.1307 353.456 88.7769L351.78 87.686ZM346.305 76.084C344.933 76.084 343.749 76.6 342.817 77.6054L344.284 78.9649C344.837 78.3687 345.489 78.084 346.305 78.084V76.084ZM342.822 77.6009C341.892 78.5911 341.374 79.9267 341.181 81.5035L343.166 81.7465C343.325 80.4522 343.725 79.5613 344.28 78.9694L342.822 77.6009ZM342.174 82.625H350.113V80.625H342.174V82.625ZM351.113 81.625V81.4199H349.113V81.625H351.113ZM351.112 81.3633C351.026 79.8453 350.609 78.5379 349.75 77.5646L348.25 78.8885C348.719 79.4192 349.045 80.2406 349.115 81.4766L351.112 81.3633ZM349.754 77.5694C348.876 76.562 347.687 76.084 346.305 76.084V78.084C347.188 78.084 347.796 78.3676 348.246 78.8837L349.754 77.5694ZM363.634 77.582L363.469 78.5684L364.634 78.7625V77.582H363.634ZM358.683 79.75L357.76 79.3633L357.683 79.5488V79.75H358.683ZM358.683 91V92H359.683V91H358.683ZM355.973 91H354.973V92H355.973V91ZM355.973 75.1504V74.1504H354.973V75.1504H355.973ZM358.609 75.1504L359.609 75.1264L359.586 74.1504H358.609V75.1504ZM358.653 76.9814L357.654 77.0054L357.733 80.3285L359.5 77.513L358.653 76.9814ZM363.634 75.0625H364.634V74.4445L364.081 74.1681L363.634 75.0625ZM363.798 76.5956C363.326 76.517 362.826 76.4795 362.301 76.4795V78.4795C362.732 78.4795 363.121 78.5104 363.469 78.5684L363.798 76.5956ZM362.301 76.4795C361.271 76.4795 360.329 76.6996 359.532 77.2001C358.728 77.7041 358.145 78.4464 357.76 79.3633L359.605 80.1367C359.855 79.5399 360.192 79.1469 360.595 78.8942C361.003 78.6378 361.554 78.4795 362.301 78.4795V76.4795ZM357.683 79.75V91H359.683V79.75H357.683ZM358.683 90H355.973V92H358.683V90ZM356.973 91V75.1504H354.973V91H356.973ZM355.973 76.1504H358.609V74.1504H355.973V76.1504ZM357.61 75.1744L357.654 77.0054L359.653 76.9575L359.609 75.1264L357.61 75.1744ZM359.5 77.513C360.212 76.3796 361.156 75.8574 362.433 75.8574V73.8574C360.447 73.8574 358.872 74.7513 357.806 76.4499L359.5 77.513ZM362.433 75.8574C362.902 75.8574 363.119 75.9229 363.187 75.9569L364.081 74.1681C363.602 73.9286 363.018 73.8574 362.433 73.8574V75.8574ZM362.634 75.0625V77.582H364.634V75.0625H362.634ZM387.613 87.2646L386.658 87.5614L387.715 90.9609L388.583 87.5086L387.613 87.2646ZM390.66 75.1504V74.1504H389.881L389.69 74.9065L390.66 75.1504ZM393.37 75.1504L394.33 75.4299L394.703 74.1504H393.37V75.1504ZM388.756 91V92H389.506L389.716 91.2795L388.756 91ZM386.559 91L385.606 91.3054L385.829 92H386.559V91ZM382.706 78.9883L383.658 78.6829L382.693 75.6739L381.751 78.6903L382.706 78.9883ZM378.956 91V92H379.691L379.911 91.298L378.956 91ZM376.759 91L375.798 91.2787L376.008 92H376.759V91ZM372.159 75.1504V74.1504H370.828L371.199 75.4291L372.159 75.1504ZM374.854 75.1504L375.822 74.8961L375.626 74.1504H374.854V75.1504ZM377.975 87.0156L377.007 87.2699L377.894 90.6411L378.929 87.3127L377.975 87.0156ZM381.666 75.1504V74.1504H380.93L380.711 74.8533L381.666 75.1504ZM383.849 75.1504L384.804 74.8536L384.585 74.1504H383.849V75.1504ZM388.583 87.5086L391.63 75.3943L389.69 74.9065L386.643 87.0207L388.583 87.5086ZM390.66 76.1504H393.37V74.1504H390.66V76.1504ZM392.41 74.8709L387.796 90.7205L389.716 91.2795L394.33 75.4299L392.41 74.8709ZM388.756 90H386.559V92H388.756V90ZM387.511 90.6946L383.658 78.6829L381.754 79.2937L385.606 91.3054L387.511 90.6946ZM381.751 78.6903L378.001 90.702L379.911 91.298L383.661 79.2863L381.751 78.6903ZM378.956 90H376.759V92H378.956V90ZM377.719 90.7213L373.12 74.8717L371.199 75.4291L375.798 91.2787L377.719 90.7213ZM372.159 76.1504H374.854V74.1504H372.159V76.1504ZM373.887 75.4047L377.007 87.2699L378.942 86.7613L375.822 74.8961L373.887 75.4047ZM378.929 87.3127L382.621 75.4475L380.711 74.8533L377.02 86.7186L378.929 87.3127ZM381.666 76.1504H383.849V74.1504H381.666V76.1504ZM382.894 75.4472L386.658 87.5614L388.568 86.9679L384.804 74.8536L382.894 75.4472ZM405.924 91L405.029 91.4472L405.306 92H405.924V91ZM405.543 89.3301L406.536 89.209L406.281 87.1215L404.823 88.6365L405.543 89.3301ZM397.179 89.9746L396.513 90.7208L396.521 90.7276L397.179 89.9746ZM397.56 82.7676L398.147 83.5766L398.148 83.5758L397.56 82.7676ZM405.499 81.3906V82.3906H406.499V81.3906H405.499ZM404.649 77.8896L403.942 78.5968L403.948 78.6029L404.649 77.8896ZM398.731 79.5449V80.5449H399.731V79.5449H398.731ZM396.007 79.5449H395.007V80.5449H396.007V79.5449ZM396.842 77.2598L396.047 76.6531L396.046 76.6547L396.842 77.2598ZM399.127 75.502L398.721 74.5881L398.717 74.5897L399.127 75.502ZM406.598 76.2344L405.934 76.9826L405.938 76.9861L406.598 76.2344ZM408.209 79.999H409.209V79.9868L409.209 79.9746L408.209 79.999ZM408.766 90.7656H409.766V90.5589L409.684 90.3692L408.766 90.7656ZM408.766 91V92H409.766V91H408.766ZM405.499 86.5615L406.398 86.9987L406.499 86.7917V86.5615H405.499ZM405.499 83.3096H406.499V82.3096H405.499V83.3096ZM406.818 90.5528C406.746 90.4088 406.633 90.006 406.536 89.209L404.55 89.4511C404.648 90.2557 404.789 90.9662 405.029 91.4472L406.818 90.5528ZM404.823 88.6365C403.743 89.7579 402.496 90.293 401.031 90.293V92.293C403.063 92.293 404.823 91.5194 406.263 90.0236L404.823 88.6365ZM401.031 90.293C399.667 90.293 398.63 89.9148 397.837 89.2216L396.521 90.7276C397.739 91.7922 399.27 92.293 401.031 92.293V90.293ZM397.844 89.2284C397.065 88.5331 396.685 87.6834 396.685 86.6055H394.685C394.685 88.2424 395.3 89.6388 396.513 90.7208L397.844 89.2284ZM396.685 86.6055C396.685 85.2496 397.176 84.2821 398.147 83.5766L396.972 81.9586C395.443 83.0694 394.685 84.6605 394.685 86.6055H396.685ZM398.148 83.5758C399.175 82.8279 400.705 82.3906 402.862 82.3906V80.3906C400.468 80.3906 398.464 80.8713 396.971 81.9594L398.148 83.5758ZM402.862 82.3906H405.499V80.3906H402.862V82.3906ZM406.499 81.3906V80.1455H404.499V81.3906H406.499ZM406.499 80.1455C406.499 78.9856 406.144 77.9568 405.35 77.1764L403.948 78.6029C404.287 78.9358 404.499 79.4109 404.499 80.1455H406.499ZM405.357 77.1825C404.541 76.3669 403.411 76.04 402.145 76.04V78.04C403.085 78.04 403.625 78.2796 403.942 78.5968L405.357 77.1825ZM402.145 76.04C401.003 76.04 399.972 76.3313 399.115 76.971L400.311 78.5739C400.762 78.2371 401.352 78.04 402.145 78.04V76.04ZM399.115 76.971C398.258 77.6101 397.731 78.4775 397.731 79.5449H399.731C399.731 79.2256 399.859 78.9113 400.311 78.5739L399.115 76.971ZM398.731 78.5449H396.007V80.5449H398.731V78.5449ZM397.007 79.5449C397.007 79.0068 397.191 78.4528 397.638 77.8648L396.046 76.6547C395.379 77.5316 395.007 78.501 395.007 79.5449H397.007ZM397.637 77.8664C398.09 77.2723 398.712 76.7843 399.537 76.4142L398.717 74.5897C397.628 75.079 396.726 75.7629 396.047 76.6531L397.637 77.8664ZM399.533 76.4158C400.361 76.0478 401.281 75.8574 402.306 75.8574V73.8574C401.026 73.8574 399.827 74.0967 398.721 74.5881L399.533 76.4158ZM402.306 75.8574C403.967 75.8574 405.134 76.2729 405.934 76.9826L407.261 75.4862C405.991 74.3599 404.297 73.8574 402.306 73.8574V75.8574ZM405.938 76.9861C406.728 77.6794 407.176 78.6512 407.209 80.0234L409.209 79.9746C409.164 78.1437 408.537 76.6057 407.257 75.4827L405.938 76.9861ZM407.209 79.999V87.2939H409.209V79.999H407.209ZM407.209 87.2939C407.209 88.8177 407.401 90.1276 407.848 91.1621L409.684 90.3692C409.388 89.6849 409.209 88.6803 409.209 87.2939H407.209ZM407.766 90.7656V91H409.766V90.7656H407.766ZM408.766 90H405.924V92H408.766V90ZM401.427 89.9346C402.458 89.9346 403.435 89.6655 404.343 89.1416L403.344 87.4092C402.729 87.7642 402.095 87.9346 401.427 87.9346V89.9346ZM404.343 89.1416C405.256 88.6152 405.959 87.9035 406.398 86.9987L404.6 86.1243C404.356 86.6258 403.955 87.0567 403.344 87.4092L404.343 89.1416ZM406.499 86.5615V83.3096H404.499V86.5615H406.499ZM405.499 82.3096H403.375V84.3096H405.499V82.3096ZM403.375 82.3096C401.65 82.3096 400.192 82.5562 399.135 83.1753C397.994 83.8428 397.395 84.9023 397.395 86.2246H399.395C399.395 85.6036 399.625 85.2055 400.145 84.9014C400.747 84.5488 401.78 84.3096 403.375 84.3096V82.3096ZM397.395 86.2246C397.395 87.3207 397.773 88.2833 398.599 88.9807L399.889 87.4529C399.582 87.1933 399.395 86.8277 399.395 86.2246H397.395ZM398.599 88.9807C399.38 89.6406 400.351 89.9346 401.427 89.9346V87.9346C400.725 87.9346 400.241 87.7501 399.889 87.4529L398.599 88.9807ZM416.134 71.3125H417.134V70.3125H416.134V71.3125ZM416.134 75.1504H415.134V76.1504H416.134V75.1504ZM419.093 75.1504H420.093V74.1504H419.093V75.1504ZM419.093 77.2451V78.2451H420.093V77.2451H419.093ZM416.134 77.2451V76.2451H415.134V77.2451H416.134ZM416.529 88.5098L415.755 89.143L415.76 89.1489L415.765 89.1546L416.529 88.5098ZM419.166 88.8027H420.166V87.5657L418.956 87.8249L419.166 88.8027ZM419.166 91L419.43 91.9645L420.166 91.7629V91H419.166ZM413.424 77.2451H414.424V76.2451H413.424V77.2451ZM410.538 77.2451H409.538V78.2451H410.538V77.2451ZM410.538 75.1504V74.1504H409.538V75.1504H410.538ZM413.424 75.1504V76.1504H414.424V75.1504H413.424ZM413.424 71.3125V70.3125H412.424V71.3125H413.424ZM415.134 71.3125V75.1504H417.134V71.3125H415.134ZM416.134 76.1504H419.093V74.1504H416.134V76.1504ZM418.093 75.1504V77.2451H420.093V75.1504H418.093ZM419.093 76.2451H416.134V78.2451H419.093V76.2451ZM415.134 77.2451V87.0742H417.134V77.2451H415.134ZM415.134 87.0742C415.134 87.8243 415.286 88.5694 415.755 89.143L417.303 87.8765C417.245 87.8056 417.134 87.5937 417.134 87.0742H415.134ZM415.765 89.1546C416.303 89.7926 417.111 89.9785 417.877 89.9785V87.9785C417.636 87.9785 417.483 87.9482 417.392 87.9168C417.349 87.9018 417.324 87.8878 417.311 87.8793C417.299 87.8713 417.295 87.8663 417.294 87.8649L415.765 89.1546ZM417.877 89.9785C418.294 89.9785 418.805 89.9029 419.376 89.7805L418.956 87.8249C418.434 87.937 418.085 87.9785 417.877 87.9785V89.9785ZM418.166 88.8027V91H420.166V88.8027H418.166ZM418.902 90.0355C418.267 90.2095 417.662 90.293 417.086 90.293V92.293C417.857 92.293 418.64 92.1811 419.43 91.9645L418.902 90.0355ZM417.086 90.293C416.085 90.293 415.489 89.9995 415.112 89.5511L413.581 90.8375C414.435 91.8541 415.665 92.293 417.086 92.293V90.293ZM415.112 89.5511C414.7 89.0603 414.424 88.2816 414.424 87.0742H412.424C412.424 88.5622 412.763 89.8636 413.581 90.8375L415.112 89.5511ZM414.424 87.0742V77.2451H412.424V87.0742H414.424ZM413.424 76.2451H410.538V78.2451H413.424V76.2451ZM411.538 77.2451V75.1504H409.538V77.2451H411.538ZM410.538 76.1504H413.424V74.1504H410.538V76.1504ZM414.424 75.1504V71.3125H412.424V75.1504H414.424ZM413.424 72.3125H416.134V70.3125H413.424V72.3125ZM423.604 89.1836L422.88 89.873L422.883 89.8755L423.604 89.1836ZM422.477 78.8125L421.578 78.3738L421.576 78.3768L422.477 78.8125ZM424.996 75.9121L425.538 76.7523L425.54 76.7511L424.996 75.9121ZM433.316 76.8936L432.551 77.5375L433.316 76.8936ZM435.03 83.8516V84.8516H436.03V83.8516H435.03ZM424.293 83.8516V82.8516H423.268L423.293 83.8766L424.293 83.8516ZM425.655 87.6455L424.912 88.3141L424.919 88.3219L425.655 87.6455ZM433.17 86.9424L433.784 86.1534L432.992 85.5367L432.379 86.3309L433.17 86.9424ZM434.825 88.2314L435.663 88.7769L436.164 88.0069L435.44 87.4425L434.825 88.2314ZM425.758 78.2852L426.487 78.9694L426.491 78.9649L425.758 78.2852ZM424.381 81.625L423.388 81.5035L423.251 82.625H424.381V81.625ZM432.32 81.625V82.625H433.32V81.625H432.32ZM432.32 81.4199H433.32V81.3916L433.319 81.3633L432.32 81.4199ZM431.207 78.2266L430.453 78.8837L430.457 78.8885L431.207 78.2266ZM428.849 90.293C426.942 90.293 425.465 89.6798 424.326 88.4917L422.883 89.8755C424.439 91.4999 426.459 92.293 428.849 92.293V90.293ZM424.329 88.4942C423.194 87.3015 422.583 85.6781 422.583 83.5146H420.583C420.583 86.0778 421.32 88.2336 422.88 89.873L424.329 88.4942ZM422.583 83.5146V83.0166H420.583V83.5146H422.583ZM422.583 83.0166C422.583 81.5726 422.856 80.3238 423.377 79.2482L421.576 78.3768C420.906 79.7621 420.583 81.3161 420.583 83.0166H422.583ZM423.375 79.2512C423.907 78.1613 424.629 77.339 425.538 76.7523L424.454 75.0719C423.214 75.872 422.257 76.9833 421.578 78.3738L423.375 79.2512ZM425.54 76.7511C426.467 76.1502 427.45 75.8574 428.512 75.8574V73.8574C427.054 73.8574 425.694 74.2678 424.452 75.0731L425.54 76.7511ZM428.512 75.8574C430.33 75.8574 431.63 76.4434 432.551 77.5375L434.081 76.2496C432.717 74.6288 430.814 73.8574 428.512 73.8574V75.8574ZM432.551 77.5375C433.489 78.6514 434.03 80.3314 434.03 82.7236H436.03C436.03 80.0573 435.429 77.8506 434.081 76.2496L432.551 77.5375ZM434.03 82.7236V83.8516H436.03V82.7236H434.03ZM435.03 82.8516H424.293V84.8516H435.03V82.8516ZM423.293 83.8766C423.337 85.6269 423.852 87.1359 424.912 88.3141L426.399 86.977C425.72 86.2215 425.327 85.2013 425.293 83.8266L423.293 83.8766ZM424.919 88.3219C425.995 89.4937 427.379 90.0811 428.995 90.0811V88.0811C427.916 88.0811 427.074 87.7114 426.392 86.9691L424.919 88.3219ZM428.995 90.0811C430.088 90.0811 431.083 89.8576 431.934 89.3571L430.92 87.6332C430.442 87.9139 429.817 88.0811 428.995 88.0811V90.0811ZM431.934 89.3571C432.714 88.8982 433.39 88.2934 433.961 87.5538L432.379 86.3309C431.954 86.8805 431.468 87.3108 430.92 87.6332L431.934 89.3571ZM432.555 87.7314L434.211 89.0204L435.44 87.4425L433.784 86.1534L432.555 87.7314ZM433.987 87.686C432.862 89.4142 431.203 90.293 428.849 90.293V92.293C431.807 92.293 434.132 91.1307 435.663 88.7769L433.987 87.686ZM428.512 76.084C427.14 76.084 425.956 76.6 425.024 77.6054L426.491 78.9649C427.044 78.3687 427.696 78.084 428.512 78.084V76.084ZM425.029 77.6009C424.1 78.5911 423.581 79.9267 423.388 81.5035L425.373 81.7465C425.532 80.4522 425.932 79.5613 426.487 78.9694L425.029 77.6009ZM424.381 82.625H432.32V80.625H424.381V82.625ZM433.32 81.625V81.4199H431.32V81.625H433.32ZM433.319 81.3633C433.233 79.8453 432.816 78.5379 431.957 77.5646L430.457 78.8885C430.926 79.4192 431.252 80.2406 431.322 81.4766L433.319 81.3633ZM431.961 77.5694C431.083 76.562 429.894 76.084 428.512 76.084V78.084C429.395 78.084 430.003 78.3676 430.453 78.8837L431.961 77.5694ZM445.841 77.582L445.676 78.5684L446.841 78.7625V77.582H445.841ZM440.89 79.75L439.967 79.3633L439.89 79.5488V79.75H440.89ZM440.89 91V92H441.89V91H440.89ZM438.18 91H437.18V92H438.18V91ZM438.18 75.1504V74.1504H437.18V75.1504H438.18ZM440.816 75.1504L441.816 75.1264L441.793 74.1504H440.816V75.1504ZM440.86 76.9814L439.861 77.0054L439.94 80.3285L441.707 77.513L440.86 76.9814ZM445.841 75.0625H446.841V74.4445L446.288 74.1681L445.841 75.0625ZM446.005 76.5956C445.533 76.517 445.033 76.4795 444.508 76.4795V78.4795C444.939 78.4795 445.328 78.5104 445.676 78.5684L446.005 76.5956ZM444.508 76.4795C443.478 76.4795 442.536 76.6996 441.739 77.2001C440.935 77.7041 440.352 78.4464 439.967 79.3633L441.812 80.1367C442.062 79.5399 442.399 79.1469 442.802 78.8942C443.21 78.6378 443.761 78.4795 444.508 78.4795V76.4795ZM439.89 79.75V91H441.89V79.75H439.89ZM440.89 90H438.18V92H440.89V90ZM439.18 91V75.1504H437.18V91H439.18ZM438.18 76.1504H440.816V74.1504H438.18V76.1504ZM439.817 75.1744L439.861 77.0054L441.86 76.9575L441.816 75.1264L439.817 75.1744ZM441.707 77.513C442.419 76.3796 443.363 75.8574 444.64 75.8574V73.8574C442.654 73.8574 441.079 74.7513 440.013 76.4499L441.707 77.513ZM444.64 75.8574C445.109 75.8574 445.326 75.9229 445.394 75.9569L446.288 74.1681C445.809 73.9286 445.225 73.8574 444.64 73.8574V75.8574ZM444.841 75.0625V77.582H446.841V75.0625H444.841ZM469.82 87.2646L468.865 87.5614L469.922 90.9609L470.79 87.5086L469.82 87.2646ZM472.867 75.1504V74.1504H472.088L471.897 74.9065L472.867 75.1504ZM475.577 75.1504L476.537 75.4299L476.91 74.1504H475.577V75.1504ZM470.963 91V92H471.713L471.923 91.2795L470.963 91ZM468.766 91L467.813 91.3054L468.036 92H468.766V91ZM464.913 78.9883L465.865 78.6829L464.9 75.6739L463.959 78.6903L464.913 78.9883ZM461.163 91V92H461.898L462.118 91.298L461.163 91ZM458.966 91L458.005 91.2787L458.215 92H458.966V91ZM454.366 75.1504V74.1504H453.035L453.406 75.4291L454.366 75.1504ZM457.062 75.1504L458.029 74.8961L457.833 74.1504H457.062V75.1504ZM460.182 87.0156L459.215 87.2699L460.101 90.6411L461.136 87.3127L460.182 87.0156ZM463.873 75.1504V74.1504H463.137L462.918 74.8533L463.873 75.1504ZM466.056 75.1504L467.011 74.8536L466.792 74.1504H466.056V75.1504ZM470.79 87.5086L473.837 75.3943L471.897 74.9065L468.851 87.0207L470.79 87.5086ZM472.867 76.1504H475.577V74.1504H472.867V76.1504ZM474.617 74.8709L470.003 90.7205L471.923 91.2795L476.537 75.4299L474.617 74.8709ZM470.963 90H468.766V92H470.963V90ZM469.718 90.6946L465.865 78.6829L463.961 79.2937L467.813 91.3054L469.718 90.6946ZM463.959 78.6903L460.209 90.702L462.118 91.298L465.868 79.2863L463.959 78.6903ZM461.163 90H458.966V92H461.163V90ZM459.926 90.7213L455.327 74.8717L453.406 75.4291L458.005 91.2787L459.926 90.7213ZM454.366 76.1504H457.062V74.1504H454.366V76.1504ZM456.094 75.4047L459.215 87.2699L461.149 86.7613L458.029 74.8961L456.094 75.4047ZM461.136 87.3127L464.828 75.4475L462.918 74.8533L459.227 86.7186L461.136 87.3127ZM463.873 76.1504H466.056V74.1504H463.873V76.1504ZM465.101 75.4472L468.865 87.5614L470.775 86.9679L467.011 74.8536L465.101 75.4472ZM478.536 78.7393L477.64 78.2949L477.638 78.3006L478.536 78.7393ZM481.085 75.8682L480.56 75.0168L480.557 75.0189L481.085 75.8682ZM490.05 77.0986L489.302 77.763L489.305 77.7657L490.05 77.0986ZM491.163 87.4111L490.263 86.9754L490.262 86.9784L491.163 87.4111ZM488.629 90.2676L488.102 89.4175L488.099 89.4196L488.629 90.2676ZM479.62 89.0518L478.873 89.7161L478.875 89.7188L479.62 89.0518ZM481.568 87.4844L480.773 88.0902L480.776 88.0948L481.568 87.4844ZM488.131 87.4697L488.929 88.0721L488.932 88.0686L488.131 87.4697ZM488.102 78.71L487.304 79.3134L487.31 79.3214L488.102 78.71ZM478.628 82.9287C478.628 81.5089 478.904 80.2653 479.435 79.178L477.638 78.3006C476.957 79.6936 476.628 81.2431 476.628 82.9287H478.628ZM479.432 79.1836C479.972 78.0953 480.7 77.2849 481.613 76.7174L480.557 75.0189C479.302 75.7991 478.331 76.9027 477.64 78.2949L479.432 79.1836ZM481.609 76.7196C482.532 76.1513 483.592 75.8574 484.82 75.8574V73.8574C483.255 73.8574 481.826 74.2374 480.56 75.0168L481.609 76.7196ZM484.82 75.8574C486.718 75.8574 488.18 76.5008 489.302 77.763L490.797 76.4343C489.263 74.7082 487.239 73.8574 484.82 73.8574V75.8574ZM489.305 77.7657C490.442 79.0357 491.057 80.7655 491.057 83.0605H493.057C493.057 80.3947 492.333 78.1498 490.795 76.4316L489.305 77.7657ZM491.057 83.0605V83.251H493.057V83.0605H491.057ZM491.057 83.251C491.057 84.6625 490.785 85.8973 490.263 86.9754L492.063 87.8469C492.733 86.464 493.057 84.9253 493.057 83.251H491.057ZM490.262 86.9784C489.754 88.0349 489.036 88.8388 488.102 89.4175L489.156 91.1177C490.428 90.3291 491.4 89.2288 492.065 87.8439L490.262 86.9784ZM488.099 89.4196C487.181 89.9935 486.108 90.293 484.85 90.293V92.293C486.442 92.293 487.89 91.9088 489.159 91.1156L488.099 89.4196ZM484.85 90.293C482.963 90.293 481.499 89.6505 480.365 88.3847L478.875 89.7188C480.417 91.4413 482.44 92.293 484.85 92.293V90.293ZM480.368 88.3874C479.237 87.1161 478.628 85.3942 478.628 83.1191H476.628C476.628 85.766 477.347 87.9992 478.873 89.7161L480.368 88.3874ZM478.628 83.1191V82.9287H476.628V83.1191H478.628ZM479.353 83.251C479.353 85.159 479.793 86.8039 480.773 88.0902L482.364 86.8786C481.722 86.0359 481.353 84.8586 481.353 83.251H479.353ZM480.776 88.0948C481.79 89.4099 483.179 90.0811 484.85 90.0811V88.0811C483.786 88.0811 482.988 87.6878 482.36 86.874L480.776 88.0948ZM484.85 90.0811C486.532 90.0811 487.924 89.4035 488.929 88.072L487.333 86.8674C486.716 87.6844 485.921 88.0811 484.85 88.0811V90.0811ZM488.932 88.0686C489.917 86.7508 490.347 84.997 490.347 82.9287H488.347C488.347 84.7471 487.966 86.0206 487.33 86.8709L488.932 88.0686ZM490.347 82.9287C490.347 81.0319 489.892 79.3917 488.893 78.0985L487.31 79.3214C487.971 80.1766 488.347 81.349 488.347 82.9287H490.347ZM488.899 78.1065C487.888 76.7711 486.499 76.084 484.82 76.084V78.084C485.876 78.084 486.674 78.4809 487.304 79.3134L488.899 78.1065ZM484.82 76.084C483.171 76.084 481.8 76.7614 480.791 78.0703L482.375 79.2911C483.007 78.471 483.794 78.084 484.82 78.084V76.084ZM480.791 78.0703C479.785 79.3755 479.353 81.1484 479.353 83.251H481.353C481.353 81.3887 481.74 80.1148 482.375 79.2911L480.791 78.0703ZM503.116 77.582L502.952 78.5684L504.116 78.7625V77.582H503.116ZM498.165 79.75L497.243 79.3633L497.165 79.5488V79.75H498.165ZM498.165 91V92H499.165V91H498.165ZM495.455 91H494.455V92H495.455V91ZM495.455 75.1504V74.1504H494.455V75.1504H495.455ZM498.092 75.1504L499.092 75.1264L499.068 74.1504H498.092V75.1504ZM498.136 76.9814L497.136 77.0054L497.216 80.3285L498.983 77.513L498.136 76.9814ZM503.116 75.0625H504.116V74.4445L503.563 74.1681L503.116 75.0625ZM503.281 76.5956C502.809 76.517 502.309 76.4795 501.783 76.4795V78.4795C502.215 78.4795 502.603 78.5104 502.952 78.5684L503.281 76.5956ZM501.783 76.4795C500.753 76.4795 499.812 76.6996 499.014 77.2001C498.211 77.7041 497.627 78.4464 497.243 79.3633L499.087 80.1367C499.338 79.5399 499.674 79.1469 500.077 78.8942C500.486 78.6378 501.036 78.4795 501.783 78.4795V76.4795ZM497.165 79.75V91H499.165V79.75H497.165ZM498.165 90H495.455V92H498.165V90ZM496.455 91V75.1504H494.455V91H496.455ZM495.455 76.1504H498.092V74.1504H495.455V76.1504ZM497.092 75.1744L497.136 77.0054L499.135 76.9575L499.092 75.1264L497.092 75.1744ZM498.983 77.513C499.694 76.3796 500.639 75.8574 501.915 75.8574V73.8574C499.93 73.8574 498.355 74.7513 497.289 76.4499L498.983 77.513ZM501.915 75.8574C502.384 75.8574 502.601 75.9229 502.669 75.9569L503.563 74.1681C503.085 73.9286 502.5 73.8574 501.915 73.8574V75.8574ZM502.116 75.0625V77.582H504.116V75.0625H502.116ZM508.565 91V92H509.565V91H508.565ZM505.855 91H504.855V92H505.855V91ZM505.855 68.5V67.5H504.855V68.5H505.855ZM508.565 68.5H509.565V67.5H508.565V68.5ZM508.565 90H505.855V92H508.565V90ZM506.855 91V68.5H504.855V91H506.855ZM505.855 69.5H508.565V67.5H505.855V69.5ZM507.565 68.5V91H509.565V68.5H507.565ZM513.985 77.084L514.773 77.6997L514.775 77.6972L513.985 77.084ZM522.921 76.7617L522.16 77.4111L523.921 79.4729V76.7617H522.921ZM522.921 68.5V67.5H521.921V68.5H522.921ZM525.631 68.5H526.631V67.5H525.631V68.5ZM525.631 91V92H526.631V91H525.631ZM523.141 91L522.144 91.0774L522.215 92H523.141V91ZM523.009 89.3008L524.006 89.2234L523.813 86.7343L522.234 88.6685L523.009 89.3008ZM513.985 89.0371L513.192 89.6453L513.194 89.6486L513.985 89.0371ZM522.921 86.6787L523.811 87.1349L523.921 86.9201V86.6787H522.921ZM522.921 79.3984H523.921V79.1447L523.8 78.9216L522.921 79.3984ZM513.257 82.9434C513.257 80.6676 513.795 78.952 514.773 77.6997L513.197 76.4682C511.871 78.1652 511.257 80.3558 511.257 82.9434H513.257ZM514.775 77.6972C515.74 76.4547 516.958 75.8574 518.512 75.8574V73.8574C516.335 73.8574 514.536 74.7445 513.195 76.4708L514.775 77.6972ZM518.512 75.8574C520.111 75.8574 521.289 76.3905 522.16 77.4111L523.681 76.1124C522.385 74.5939 520.623 73.8574 518.512 73.8574V75.8574ZM523.921 76.7617V68.5H521.921V76.7617H523.921ZM522.921 69.5H525.631V67.5H522.921V69.5ZM524.631 68.5V91H526.631V68.5H524.631ZM525.631 90H523.141V92H525.631V90ZM524.138 90.9226L524.006 89.2234L522.012 89.3781L522.144 91.0774L524.138 90.9226ZM522.234 88.6685C521.366 89.7323 520.159 90.293 518.482 90.293V92.293C520.673 92.293 522.484 91.5255 523.784 89.9331L522.234 88.6685ZM518.482 90.293C516.969 90.293 515.757 89.6946 514.777 88.4257L513.194 89.6486C514.538 91.3875 516.324 92.293 518.482 92.293V90.293ZM514.779 88.4289C513.794 87.143 513.257 85.4122 513.257 83.1484H511.257C511.257 85.7284 511.872 87.9234 513.192 89.6453L514.779 88.4289ZM513.257 83.1484V82.9434H511.257V83.1484H513.257ZM513.967 83.251C513.967 85.1722 514.362 86.8135 515.273 88.0597L516.887 86.8797C516.314 86.0947 515.967 84.9235 515.967 83.251H513.967ZM515.273 88.0597C516.212 89.345 517.544 89.9932 519.156 89.9932V87.9932C518.152 87.9932 517.433 87.6257 516.887 86.8797L515.273 88.0597ZM519.156 89.9932C520.169 89.9932 521.101 89.7642 521.91 89.2664C522.719 88.769 523.347 88.0401 523.811 87.1349L522.031 86.2225C521.704 86.8603 521.308 87.2886 520.863 87.5627C520.418 87.8364 519.862 87.9932 519.156 87.9932V89.9932ZM523.921 86.6787V79.3984H521.921V86.6787H523.921ZM523.8 78.9216C523.324 78.0444 522.694 77.3402 521.894 76.86C521.093 76.3794 520.178 76.1572 519.186 76.1572V78.1572C519.873 78.1572 520.421 78.3085 520.865 78.575C521.309 78.8419 521.707 79.2583 522.042 79.8753L523.8 78.9216ZM519.186 76.1572C517.555 76.1572 516.211 76.8091 515.27 78.109L516.89 79.2816C517.434 78.5308 518.16 78.1572 519.186 78.1572V76.1572ZM515.27 78.109C514.351 79.3789 513.967 81.1434 513.967 83.251H515.967C515.967 81.3351 516.325 80.0625 516.89 79.2816L515.27 78.109Z" fill="white" fill-opacity="0.8"/>
</g>
<g id="TOUCH">
<path d="M304.256 6.4375H289.631V47H283.663V6.4375H269.069V1.5H304.256V6.4375ZM348.331 25.7188C348.331 30.1771 347.581 34.0729 346.081 37.4062C344.581 40.7188 342.456 43.25 339.706 45C336.956 46.75 333.748 47.625 330.081 47.625C326.498 47.625 323.321 46.75 320.55 45C317.779 43.2292 315.623 40.7188 314.081 37.4688C312.56 34.1979 311.779 30.4167 311.738 26.125V22.8438C311.738 18.4688 312.498 14.6042 314.019 11.25C315.54 7.89583 317.685 5.33333 320.456 3.5625C323.248 1.77083 326.435 0.875 330.019 0.875C333.665 0.875 336.873 1.76042 339.644 3.53125C342.435 5.28125 344.581 7.83333 346.081 11.1875C347.581 14.5208 348.331 18.4062 348.331 22.8438V25.7188ZM342.363 22.7812C342.363 17.3854 341.279 13.25 339.113 10.375C336.946 7.47917 333.915 6.03125 330.019 6.03125C326.227 6.03125 323.238 7.47917 321.05 10.375C318.883 13.25 317.769 17.25 317.706 22.375V25.7188C317.706 30.9479 318.8 35.0625 320.988 38.0625C323.196 41.0417 326.227 42.5312 330.081 42.5312C333.956 42.5312 336.956 41.125 339.081 38.3125C341.206 35.4792 342.3 31.4271 342.363 26.1562V22.7812ZM392.562 1.5V32.4375C392.542 36.7292 391.188 40.2396 388.5 42.9688C385.833 45.6979 382.208 47.2292 377.625 47.5625L376.031 47.625C371.052 47.625 367.083 46.2812 364.125 43.5938C361.167 40.9062 359.667 37.2083 359.625 32.5V1.5H365.562V32.3125C365.562 35.6042 366.469 38.1667 368.281 40C370.094 41.8125 372.677 42.7188 376.031 42.7188C379.427 42.7188 382.021 41.8125 383.812 40C385.625 38.1875 386.531 35.6354 386.531 32.3438V1.5H392.562ZM438.7 32.5625C438.138 37.375 436.356 41.0938 433.356 43.7188C430.377 46.3229 426.408 47.625 421.45 47.625C416.075 47.625 411.763 45.6979 408.513 41.8438C405.283 37.9896 403.669 32.8333 403.669 26.375V22C403.669 17.7708 404.419 14.0521 405.919 10.8438C407.44 7.63542 409.585 5.17708 412.356 3.46875C415.127 1.73958 418.335 0.875 421.981 0.875C426.815 0.875 430.69 2.22917 433.606 4.9375C436.523 7.625 438.221 11.3542 438.7 16.125H432.669C432.148 12.5 431.013 9.875 429.263 8.25C427.533 6.625 425.106 5.8125 421.981 5.8125C418.148 5.8125 415.138 7.22917 412.95 10.0625C410.783 12.8958 409.7 16.9271 409.7 22.1562V26.5625C409.7 31.5 410.731 35.4271 412.794 38.3438C414.856 41.2604 417.742 42.7188 421.45 42.7188C424.783 42.7188 427.335 41.9688 429.106 40.4688C430.898 38.9479 432.085 36.3125 432.669 32.5625H438.7ZM485.088 47H479.056V25.9688H456.119V47H450.119V1.5H456.119V21.0625H479.056V1.5H485.088V47Z" fill="white"/>
<path d="M304.256 6.4375V11.4375H309.256V6.4375H304.256ZM289.631 6.4375V1.4375H284.631V6.4375H289.631ZM289.631 47V52H294.631V47H289.631ZM283.663 47H278.663V52H283.663V47ZM283.663 6.4375H288.663V1.4375H283.663V6.4375ZM269.069 6.4375H264.069V11.4375H269.069V6.4375ZM269.069 1.5V-3.5H264.069V1.5H269.069ZM304.256 1.5H309.256V-3.5H304.256V1.5ZM304.256 1.4375H289.631V11.4375H304.256V1.4375ZM284.631 6.4375V47H294.631V6.4375H284.631ZM289.631 42H283.663V52H289.631V42ZM288.663 47V6.4375H278.663V47H288.663ZM283.663 1.4375H269.069V11.4375H283.663V1.4375ZM274.069 6.4375V1.5H264.069V6.4375H274.069ZM269.069 6.5H304.256V-3.5H269.069V6.5ZM299.256 1.5V6.4375H309.256V1.5H299.256ZM346.081 37.4062L350.636 39.4688L350.641 39.4581L346.081 37.4062ZM320.55 45L317.857 49.2131L317.869 49.2203L317.88 49.2274L320.55 45ZM314.081 37.4688L309.547 39.5769L309.556 39.5943L309.564 39.6117L314.081 37.4688ZM311.738 26.125H306.738V26.1493L306.738 26.1735L311.738 26.125ZM320.456 3.5625L323.149 7.77559L323.157 7.77043L320.456 3.5625ZM339.644 3.53125L336.951 7.74433L336.97 7.75609L336.988 7.76769L339.644 3.53125ZM346.081 11.1875L341.517 13.2287L341.522 13.2393L346.081 11.1875ZM339.113 10.375L335.109 13.3704L335.114 13.3773L335.119 13.3843L339.113 10.375ZM321.05 10.375L317.06 7.36124L317.057 7.36575L321.05 10.375ZM317.706 22.375L312.707 22.314L312.706 22.3445V22.375H317.706ZM320.988 38.0625L316.947 41.0084L316.959 41.0242L316.971 41.04L320.988 38.0625ZM339.081 38.3125L343.071 41.3267L343.076 41.3196L343.081 41.3125L339.081 38.3125ZM342.363 26.1562L347.362 26.2155L347.363 26.1859V26.1562H342.363ZM343.331 25.7188C343.331 29.6217 342.675 32.7917 341.522 35.3544L350.641 39.4581C352.488 35.3541 353.331 30.7325 353.331 25.7188H343.331ZM341.526 35.3437C340.379 37.877 338.859 39.6124 337.022 40.7817L342.391 49.2183C346.053 46.8876 348.783 43.5605 350.636 39.4688L341.526 35.3437ZM337.022 40.7817C335.171 41.9593 332.919 42.625 330.081 42.625V52.625C334.577 52.625 338.741 51.5407 342.391 49.2183L337.022 40.7817ZM330.081 42.625C327.351 42.625 325.118 41.9711 323.22 40.7726L317.88 49.2274C321.524 51.5289 325.644 52.625 330.081 52.625V42.625ZM323.243 40.7869C321.336 39.5683 319.778 37.8107 318.599 35.3258L309.564 39.6117C311.468 43.6268 314.223 46.8901 317.857 49.2131L323.243 40.7869ZM318.615 35.3606C317.446 32.8461 316.773 29.7895 316.737 26.0765L306.738 26.1735C306.785 31.0438 307.675 35.5497 309.547 39.5769L318.615 35.3606ZM316.738 26.125V22.8438H306.738V26.125H316.738ZM316.738 22.8438C316.738 19.0489 317.396 15.91 318.573 13.3148L309.465 9.18525C307.6 13.2984 306.738 17.8886 306.738 22.8438H316.738ZM318.573 13.3148C319.743 10.7324 321.289 8.96441 323.149 7.77558L317.764 -0.650582C314.082 1.70226 311.336 5.05923 309.465 9.18525L318.573 13.3148ZM323.157 7.77043C325.078 6.53755 327.313 5.875 330.019 5.875V-4.125C325.558 -4.125 321.418 -2.99589 317.756 -0.645432L323.157 7.77043ZM330.019 5.875C332.818 5.875 335.07 6.54226 336.951 7.74433L342.336 -0.681832C338.676 -3.02142 334.512 -4.125 330.019 -4.125V5.875ZM336.988 7.76769C338.845 8.93169 340.373 10.6711 341.517 13.2287L350.646 9.14629C348.789 4.99554 346.026 1.63081 342.299 -0.705185L336.988 7.76769ZM341.522 13.2393C342.676 15.8048 343.331 18.9654 343.331 22.8438H353.331C353.331 17.8471 352.486 13.2368 350.641 9.13568L341.522 13.2393ZM343.331 22.8438V25.7188H353.331V22.8438H343.331ZM347.363 22.7812C347.363 16.8149 346.18 11.4448 343.106 7.36575L335.119 13.3843C336.379 15.0552 337.363 17.956 337.363 22.7812H347.363ZM343.116 7.37961C339.924 3.11304 335.349 1.03125 330.019 1.03125V11.0312C332.48 11.0312 333.968 11.8453 335.109 13.3704L343.116 7.37961ZM330.019 1.03125C324.741 1.03125 320.241 3.15041 317.06 7.36124L325.04 13.3888C326.234 11.8079 327.713 11.0312 330.019 11.0312V1.03125ZM317.057 7.36575C314.029 11.3838 312.777 16.5606 312.707 22.314L322.706 22.436C322.761 17.9394 323.738 15.1162 325.043 13.3843L317.057 7.36575ZM312.706 22.375V25.7188H322.706V22.375H312.706ZM312.706 25.7188C312.706 31.5871 313.928 36.8667 316.947 41.0084L325.028 35.1166C323.673 33.2583 322.706 30.3087 322.706 25.7188H312.706ZM316.971 41.04C320.165 45.349 324.717 47.5312 330.081 47.5312V37.5312C327.738 37.5312 326.227 36.7343 325.004 35.085L316.971 41.04ZM330.081 47.5312C335.344 47.5312 339.897 45.5264 343.071 41.3267L335.092 35.2983C334.015 36.7236 332.568 37.5312 330.081 37.5312V47.5312ZM343.081 41.3125C346.086 37.306 347.293 32.0551 347.362 26.2155L337.363 26.097C337.307 30.7991 336.326 33.6523 335.081 35.3125L343.081 41.3125ZM347.363 26.1562V22.7812H337.363V26.1562H347.363ZM392.562 1.5H397.562V-3.5H392.562V1.5ZM392.562 32.4375L397.562 32.4618L397.562 32.4496V32.4375H392.562ZM388.5 42.9688L384.937 39.4605L384.931 39.4674L384.924 39.4744L388.5 42.9688ZM377.625 47.5625L377.821 52.5587L377.904 52.5554L377.988 52.5493L377.625 47.5625ZM376.031 47.625V52.625H376.129L376.227 52.6212L376.031 47.625ZM359.625 32.5H354.625V32.5221L354.625 32.5442L359.625 32.5ZM359.625 1.5V-3.5H354.625V1.5H359.625ZM365.562 1.5H370.562V-3.5H365.562V1.5ZM368.281 40L364.726 43.5153L364.736 43.5254L364.746 43.5355L368.281 40ZM383.812 40L380.277 36.4645L380.267 36.4747L380.257 36.485L383.812 40ZM386.531 1.5V-3.5H381.531V1.5H386.531ZM387.562 1.5V32.4375H397.562V1.5H387.562ZM387.563 32.4132C387.547 35.5716 386.596 37.7759 384.937 39.4605L392.063 46.477C395.779 42.7033 397.536 37.8867 397.562 32.4618L387.563 32.4132ZM384.924 39.4744C383.277 41.1598 380.889 42.3119 377.262 42.5757L377.988 52.5493C383.527 52.1464 388.39 50.2361 392.076 46.4631L384.924 39.4744ZM377.429 42.5663L375.835 42.6288L376.227 52.6212L377.821 52.5587L377.429 42.5663ZM376.031 42.625C371.977 42.625 369.314 41.5525 367.487 39.8929L360.763 47.2946C364.853 51.01 370.127 52.625 376.031 52.625V42.625ZM367.487 39.8929C365.745 38.3103 364.657 36.0408 364.625 32.4558L354.625 32.5442C354.677 38.3759 356.588 43.5022 360.763 47.2946L367.487 39.8929ZM364.625 32.5V1.5H354.625V32.5H364.625ZM359.625 6.5H365.562V-3.5H359.625V6.5ZM360.562 1.5V32.3125H370.562V1.5H360.562ZM360.562 32.3125C360.562 36.5389 361.75 40.5058 364.726 43.5153L371.837 36.4847C371.187 35.8276 370.562 34.6694 370.562 32.3125H360.562ZM364.746 43.5355C367.759 46.5489 371.777 47.7188 376.031 47.7188V37.7188C373.578 37.7188 372.428 37.0761 371.817 36.4645L364.746 43.5355ZM376.031 47.7188C380.303 47.7188 384.357 46.5613 387.368 43.515L380.257 36.485C379.684 37.0637 378.551 37.7188 376.031 37.7188V47.7188ZM387.348 43.5355C390.344 40.5391 391.531 36.5671 391.531 32.3438H381.531C381.531 34.7038 380.906 35.8359 380.277 36.4645L387.348 43.5355ZM391.531 32.3438V1.5H381.531V32.3438H391.531ZM386.531 6.5H392.562V-3.5H386.531V6.5ZM438.7 32.5625L443.666 33.143L444.318 27.5625H438.7V32.5625ZM433.356 43.7188L436.647 47.4833L436.649 47.4816L433.356 43.7188ZM408.513 41.8438L404.68 45.0548L404.685 45.0609L404.69 45.067L408.513 41.8438ZM405.919 10.8438L401.401 8.70206L401.395 8.71407L401.389 8.7261L405.919 10.8438ZM412.356 3.46875L414.98 7.72484L414.992 7.71772L415.003 7.71053L412.356 3.46875ZM433.606 4.9375L430.204 8.60147L430.211 8.60802L430.218 8.61454L433.606 4.9375ZM438.7 16.125V21.125H444.227L443.675 15.6253L438.7 16.125ZM432.669 16.125L427.72 16.8361L428.336 21.125H432.669V16.125ZM429.263 8.25L425.838 11.8936L425.849 11.9038L425.86 11.914L429.263 8.25ZM412.95 10.0625L408.992 7.00692L408.985 7.01607L408.978 7.02525L412.95 10.0625ZM429.106 40.4688L432.338 44.284L432.342 44.2806L429.106 40.4688ZM432.669 32.5625V27.5625H428.386L427.728 31.794L432.669 32.5625ZM433.734 31.982C433.283 35.8416 431.939 38.3151 430.064 39.9559L436.649 47.4816C440.774 43.8724 442.992 38.9084 443.666 33.143L433.734 31.982ZM430.066 39.9542C428.211 41.5755 425.515 42.625 421.45 42.625V52.625C427.302 52.625 432.543 51.0703 436.647 47.4833L430.066 39.9542ZM421.45 42.625C417.438 42.625 414.566 41.2658 412.335 38.6205L404.69 45.067C408.96 50.1301 414.712 52.625 421.45 52.625V42.625ZM412.345 38.6327C410.063 35.9091 408.669 31.9998 408.669 26.375H398.669C398.669 33.6668 400.503 40.07 404.68 45.0548L412.345 38.6327ZM408.669 26.375V22H398.669V26.375H408.669ZM408.669 22C408.669 18.3625 409.312 15.3906 410.448 12.9614L401.389 8.7261C399.525 12.7136 398.669 17.1792 398.669 22H408.669ZM410.437 12.9854C411.583 10.5676 413.106 8.88029 414.98 7.72484L409.732 -0.787343C406.065 1.47387 403.296 4.70322 401.401 8.70206L410.437 12.9854ZM415.003 7.71053C416.89 6.53306 419.159 5.875 421.981 5.875V-4.125C417.512 -4.125 413.364 -3.05389 409.709 -0.773032L415.003 7.71053ZM421.981 5.875C425.838 5.875 428.402 6.92806 430.204 8.60147L437.009 1.27353C432.977 -2.46973 427.791 -4.125 421.981 -4.125V5.875ZM430.218 8.61454C432.055 10.3074 433.341 12.8045 433.725 16.6247L443.675 15.6253C443.1 9.90379 440.99 4.94258 436.994 1.26046L430.218 8.61454ZM438.7 11.125H432.669V21.125H438.7V11.125ZM437.618 15.4139C437.017 11.231 435.597 7.3091 432.665 4.58603L425.86 11.914C426.428 12.4409 427.279 13.769 427.72 16.8361L437.618 15.4139ZM432.687 4.60642C429.767 1.86252 425.964 0.8125 421.981 0.8125V10.8125C424.248 10.8125 425.3 11.3875 425.838 11.8936L432.687 4.60642ZM421.981 0.8125C416.726 0.8125 412.202 2.85011 408.992 7.00692L416.908 13.1181C418.073 11.6082 419.57 10.8125 421.981 10.8125V0.8125ZM408.978 7.02525C405.897 11.0539 404.7 16.321 404.7 22.1562H414.7C414.7 17.5331 415.669 14.7377 416.922 13.0998L408.978 7.02525ZM404.7 22.1562V26.5625H414.7V22.1562H404.7ZM404.7 26.5625C404.7 32.1492 405.863 37.2021 408.711 41.2306L416.876 35.4569C415.6 33.6521 414.7 30.8508 414.7 26.5625H404.7ZM408.711 41.2306C411.753 45.5313 416.192 47.7188 421.45 47.7188V37.7188C419.291 37.7188 417.96 36.9896 416.876 35.4569L408.711 41.2306ZM421.45 47.7188C425.46 47.7188 429.341 46.8227 432.338 44.284L425.875 36.6535C425.33 37.1148 424.107 37.7188 421.45 37.7188V47.7188ZM432.342 44.2806C435.466 41.6286 436.948 37.5825 437.609 33.331L427.728 31.794C427.223 35.0425 426.33 36.2672 425.871 36.6569L432.342 44.2806ZM432.669 37.5625H438.7V27.5625H432.669V37.5625ZM485.088 47V52H490.088V47H485.088ZM479.056 47H474.056V52H479.056V47ZM479.056 25.9688H484.056V20.9688H479.056V25.9688ZM456.119 25.9688V20.9688H451.119V25.9688H456.119ZM456.119 47V52H461.119V47H456.119ZM450.119 47H445.119V52H450.119V47ZM450.119 1.5V-3.5H445.119V1.5H450.119ZM456.119 1.5H461.119V-3.5H456.119V1.5ZM456.119 21.0625H451.119V26.0625H456.119V21.0625ZM479.056 21.0625V26.0625H484.056V21.0625H479.056ZM479.056 1.5V-3.5H474.056V1.5H479.056ZM485.088 1.5H490.088V-3.5H485.088V1.5ZM485.088 42H479.056V52H485.088V42ZM484.056 47V25.9688H474.056V47H484.056ZM479.056 20.9688H456.119V30.9688H479.056V20.9688ZM451.119 25.9688V47H461.119V25.9688H451.119ZM456.119 42H450.119V52H456.119V42ZM455.119 47V1.5H445.119V47H455.119ZM450.119 6.5H456.119V-3.5H450.119V6.5ZM451.119 1.5V21.0625H461.119V1.5H451.119ZM456.119 26.0625H479.056V16.0625H456.119V26.0625ZM484.056 21.0625V1.5H474.056V21.0625H484.056ZM479.056 6.5H485.088V-3.5H479.056V6.5ZM480.088 1.5V47H490.088V1.5H480.088Z" fill="white"/>
</g>
</g>
</svg>
