<svg xmlns="http://www.w3.org/2000/svg" width="512" height="162" viewBox="0 0 512 162"><path fill="#fff" d="M84.20 111.80L80.60 98.00L44.40 98.00Q42.40 105.20 40.90 111.40Q39.40 117.60 38 123.00L38 123.00Q35.20 124.00 32.10 124.70Q29 125.40 24.60 125.40L24.60 125.40Q14.40 125.40 9.50 121.90Q4.60 118.40 4.60 112.20L4.60 112.20Q4.60 109.40 5.40 106.60Q6.20 103.80 7.20 100.00L7.20 100.00Q8.60 94.60 11.10 86.50Q13.60 78.40 16.60 69.10Q19.60 59.80 23 50.10Q26.40 40.40 29.40 31.70Q32.40 23.00 34.90 16.10Q37.40 9.20 38.80 5.60L38.80 5.60Q42.20 3.60 49.10 1.80Q56-0.00 63-0.00L63-0.00Q73-0.00 80.70 2.90Q88.40 5.80 90.60 12.20L90.60 12.20Q94.20 22.40 98.40 36.20Q102.60 50.00 106.80 64.70Q111 79.40 115 93.70Q119 108.00 122 119.00L122 119.00Q119.60 121.80 114.80 123.50Q110 125.20 103.40 125.20L103.40 125.20Q93.60 125.20 89.80 122.00Q86 118.80 84.20 111.80L84.20 111.80ZM64 31.40L62.80 31.40Q60 39.60 56.60 49.60Q53.20 59.60 50 71.00L50 71.00L74.80 71.00Q72 59.60 69.10 49.50Q66.20 39.40 64 31.40L64 31.40ZM232 47.20L232 159.40Q229.80 160 225.70 160.60Q221.60 161.20 216.80 161.20L216.80 161.20Q206.80 161.20 202.40 157.90Q198 154.60 198 145.20L198 145.20L198 123.80Q194.60 125.00 190.50 125.70Q186.40 126.40 181.80 126.40L181.80 126.40Q170.80 126.40 161.60 123.10Q152.40 119.80 145.70 113.40Q139 107.00 135.30 97.30Q131.60 87.60 131.60 75.00L131.60 75.00Q131.60 62.20 135.50 52.50Q139.40 42.80 146.70 36.20Q154 29.60 164.20 26.30Q174.40 23.00 187 23.00L187 23.00Q192.60 23.00 198 23.80Q203.40 24.60 208.20 25.80Q213 27.00 216.90 28.60Q220.80 30.20 223.40 32.00L223.40 32.00Q227.40 34.80 229.70 38.30Q232 41.80 232 47.20L232 47.20ZM186.80 99.60L186.80 99.60Q193.40 99.60 198.20 97.00L198.20 97.00L198.20 52.00Q196.60 51.00 193.90 50.30Q191.20 49.60 187.80 49.60L187.80 49.60Q177.40 49.60 171.70 55.90Q166 62.20 166 75.00L166 75.00Q166 87.60 171.40 93.60Q176.80 99.60 186.80 99.60ZM253.20 84.60L253.20 26.40Q255.40 25.80 259.50 25.20Q263.60 24.60 268.40 24.60L268.40 24.60Q278.40 24.60 282.80 27.90Q287.20 31.20 287.20 40.60L287.20 40.60L287.20 84.60Q287.20 92.80 291.20 96.30Q295.20 99.80 302.80 99.80L302.80 99.80Q307.40 99.80 310.30 99.00Q313.20 98.20 314.80 97.40L314.80 97.40L314.80 26.40Q317 25.80 321.10 25.20Q325.20 24.60 330 24.60L330 24.60Q340 24.60 344.40 27.90Q348.80 31.20 348.80 40.60L348.80 40.60L348.80 102.40Q348.80 112.40 340.40 117.40L340.40 117.40Q333.40 121.80 323.70 124.10Q314 126.40 302.60 126.40L302.60 126.40Q291.80 126.40 282.70 124.00Q273.60 121.60 267 116.60Q260.40 111.60 256.80 103.70Q253.20 95.80 253.20 84.60L253.20 84.60ZM411.20 101.60L411.20 101.60Q414.60 101.60 418.70 100.90Q422.80 100.20 424.80 99.00L424.80 99.00L424.80 83.00L410.40 84.20Q404.80 84.60 401.20 86.60Q397.60 88.60 397.60 92.60L397.60 92.60Q397.60 96.60 400.70 99.10Q403.80 101.60 411.20 101.60ZM409.60 23.00L409.60 23.00Q420.40 23.00 429.30 25.20Q438.20 27.40 444.50 31.90Q450.80 36.40 454.20 43.30Q457.60 50.20 457.60 59.60L457.60 59.60L457.60 104.40Q457.60 109.60 454.70 112.90Q451.80 116.20 447.80 118.60L447.80 118.60Q434.80 126.40 411.20 126.40L411.20 126.40Q400.60 126.40 392.10 124.40Q383.60 122.40 377.50 118.40Q371.40 114.40 368.10 108.20Q364.80 102.00 364.80 93.80L364.80 93.80Q364.80 80.00 373.00 72.60Q381.20 65.20 398.40 63.40L398.40 63.40L424.60 60.60L424.60 59.20Q424.60 53.40 419.50 50.90Q414.40 48.40 404.80 48.40L404.80 48.40Q397.40 48.40 390.10 50.00Q382.80 51.60 377.00 54.00L377.00 54.00Q374.40 52.20 372.60 48.50Q370.80 44.80 370.80 40.80L370.80 40.80Q370.80 35.60 373.30 32.50Q375.80 29.40 381.00 27.20L381.00 27.20Q386.80 25.00 394.70 24.00Q402.60 23.00 409.60 23.00ZM472.40 107.00L472.40 107.00Q472.40 98.60 477.60 93.00Q482.80 87.40 491.80 87.40L491.80 87.40Q500.80 87.40 506.00 93.00Q511.20 98.60 511.20 107.00L511.20 107.00Q511.20 115.40 506.00 121.00Q500.80 126.60 491.80 126.60L491.80 126.60Q482.80 126.60 477.60 121.00Q472.40 115.40 472.40 107.00Z"></path></svg>